<svg xmlns="http://www.w3.org/2000/svg" id="bank" data-name="Layer 1" viewBox="0 0 512 512"><path fill="#8b8893" d="M37.83,141.44,253,9.26a6,6,0,0,1,6,0L474.83,141.44Z"/><path fill="#787681" d="M259,9.26a6,6,0,0,0-6,0l-12,7.35L444.83,141.44h30Z"/><rect width="43" height="222.39" x="80.5" y="211.3" fill="#dadadc"/><rect width="43" height="222.39" x="388.5" y="211.3" fill="#dadadc"/><rect width="22" height="222.39" x="409.5" y="211.3" fill="#c8c5cc"/><path fill="#787681" d="M371.5,178.39h76a0,0,0,0,1,0,0V196.3a15,15,0,0,1-15,15h-46a15,15,0,0,1-15-15V178.39A0,0,0,0,1,371.5,178.39Z"/><path fill="#57565c" d="M417.5,178.39V196.3a15,15,0,0,1-15,15h30a15,15,0,0,0,15-15V178.39Z"/><path fill="#787681" d="M64.5,178.39h76a0,0,0,0,1,0,0V196.3a15,15,0,0,1-15,15h-46a15,15,0,0,1-15-15V178.39A0,0,0,0,1,64.5,178.39Z"/><path fill="#57565c" d="M110.5,178.39V196.3a15,15,0,0,1-15,15h30a15,15,0,0,0,15-15V178.39Z"/><path fill="#787681" d="M386.5,411.12h46a15,15,0,0,1,15,15V444a0,0,0,0,1,0,0h-76a0,0,0,0,1,0,0V426.12A15,15,0,0,1,386.5,411.12Z"/><path fill="#57565c" d="M432.5,411.12h-30a15,15,0,0,1,15,15V444h30V426.12A15,15,0,0,0,432.5,411.12Z"/><path fill="#787681" d="M79.5,411.12h46a15,15,0,0,1,15,15V444a0,0,0,0,1,0,0h-76a0,0,0,0,1,0,0V426.12A15,15,0,0,1,79.5,411.12Z"/><path fill="#57565c" d="M125.5,411.12h-30a15,15,0,0,1,15,15V444h30V426.12A15,15,0,0,0,125.5,411.12Z"/><circle cx="256" cy="82" r="22.5" fill="#fff"/><path fill="#e1e1e3" d="M256,59.5a22.46,22.46,0,0,0-7.5,1.29,22.5,22.5,0,0,1,0,42.42A22.5,22.5,0,1,0,256,59.5Z"/><path fill="#aeadb3" d="M459.5,178.5H52.5a15,15,0,0,1-15-15l.33-22.06h437l-.33,22.06A15,15,0,0,1,459.5,178.5Z"/><path fill="#8b8893" d="M444.83,141.44l-.33,22.06a15,15,0,0,1-15,15h30a15,15,0,0,0,15-15l.33-22.06Z"/><path fill="#aeadb3" d="M504.5,504.5H7.5l10.85-21.71a15,15,0,0,1,13.42-8.29H480.23a15,15,0,0,1,13.42,8.29Z"/><path fill="#8b8893" d="M493.65,482.79a15,15,0,0,0-13.42-8.29h-30a15,15,0,0,1,13.42,8.29L474.5,504.5h30Z"/><path fill="#dadadc" d="M474.5,474.5H37.5l10.85-21.71a15,15,0,0,1,13.42-8.29H450.23a15,15,0,0,1,13.42,8.29Z"/><path fill="#c8c5cc" d="M463.65,452.79a15,15,0,0,0-13.42-8.29h-30a15,15,0,0,1,13.42,8.29L444.5,474.5h30Z"/><path fill="#fed947" d="M256,393.71a82.5,82.5,0,1,1,58.34-24.17A81.95,81.95,0,0,1,256,393.71Z"/><path fill="#fecc30" d="M314.34,252.87A82,82,0,0,0,256,228.71a83.62,83.62,0,0,0-12.5.94,82.52,82.52,0,0,1,0,163.12,83.62,83.62,0,0,0,12.5.94,82.51,82.51,0,0,0,58.34-140.84Z"/><path fill="#3c3b41" d="M247.12,311.13H227.2a7.5,7.5,0,0,0-6,12.83l44.73,43.46a7.5,7.5,0,0,0,10.45-10.76L245,326.13h2.16a32.48,32.48,0,0,0,31.61-25.4h7a7.5,7.5,0,0,0,0-15h-7.24a32.34,32.34,0,0,0-4.14-9.59h11.38a7.5,7.5,0,0,0,0-15h-59a7.5,7.5,0,1,0,0,15h20.34a17.37,17.37,0,0,1,15.49,9.59H226.78a7.5,7.5,0,1,0,0,15H263A17.41,17.41,0,0,1,247.12,311.13Zm8.88,90a90,90,0,1,0-63.64-26.36A89.41,89.41,0,0,0,256,401.14Zm-53-143a75,75,0,1,1-22,53A74.54,74.54,0,0,1,203,258.1Zm308.24,243-10.85-21.71a22.38,22.38,0,0,0-20.12-12.44h-1.1l-8.78-17.56A22.38,22.38,0,0,0,455,437.43V426.05a22.55,22.55,0,0,0-16-21.54V217.77a22.56,22.56,0,0,0,16-21.54v-10.3h4.5A22.53,22.53,0,0,0,482,163.49l.33-22c0-.06,0-.12,0-.18s0-.29,0-.44l0-.32c0-.13,0-.26-.06-.39a3.43,3.43,0,0,0-.06-.34l-.09-.37a3.37,3.37,0,0,0-.1-.34l-.12-.36a2.88,2.88,0,0,0-.13-.31c-.05-.13-.11-.25-.17-.37a2.44,2.44,0,0,0-.14-.28c-.07-.13-.14-.25-.22-.37a2.13,2.13,0,0,0-.16-.25c-.08-.13-.17-.25-.26-.37l-.18-.22-.3-.34-.12-.13-.09-.08-.31-.29-.27-.22a2.37,2.37,0,0,0-.3-.23,3.62,3.62,0,0,0-.32-.22l-.13-.09L262.93,2.79l-.14-.09a13.56,13.56,0,0,0-13.58,0l-.16.09L33.9,135l-.09.07-.37.25-.25.19-.29.24-.28.25-.22.23-.28.3-.19.24-.25.33-.19.29a3.14,3.14,0,0,0-.18.31c-.07.12-.14.25-.2.38a1.92,1.92,0,0,0-.12.25c-.07.14-.12.29-.18.44l-.09.23c0,.14-.08.29-.13.44l-.06.26c0,.13-.06.26-.08.4l-.06.34,0,.32c0,.15,0,.29,0,.43s0,.06,0,.09L30,163.32v.11a22.52,22.52,0,0,0,22.5,22.5H57v10.3a22.54,22.54,0,0,0,16,21.54V404.51a22.53,22.53,0,0,0-16,21.54v11.38a22.38,22.38,0,0,0-15.36,11.94l-8.78,17.56H31.77a22.39,22.39,0,0,0-20.13,12.44L.79,501.08A7.5,7.5,0,0,0,7.5,511.93h497a7.49,7.49,0,0,0,6.7-10.85Zm-71.2-75v10.88H379V426.05a7.5,7.5,0,0,1,7.5-7.5h46A7.51,7.51,0,0,1,440,426.05ZM131,404.23V218.05a22.56,22.56,0,0,0,17-21.82v-10.3H364v10.3a22.54,22.54,0,0,0,17,21.82V404.23a22.54,22.54,0,0,0-17,21.82v10.88H148V426.05A22.55,22.55,0,0,0,131,404.23Zm265-.68V218.73h28V403.55Zm44-207.32a7.52,7.52,0,0,1-7.5,7.5h-46a7.51,7.51,0,0,1-7.5-7.5v-10.3h61ZM256,16.13,448.23,133.87H64.36ZM64.5,170.82a7.27,7.27,0,0,0-1.25.11H52.5a7.51,7.51,0,0,1-7.5-7.45l.22-14.61h422L467,163.32v.11a7.51,7.51,0,0,1-7.5,7.5H448.75a7.45,7.45,0,0,0-1.25-.11,7.27,7.27,0,0,0-1.25.11h-73.5a7.45,7.45,0,0,0-1.25-.11,7.27,7.27,0,0,0-1.25.11H141.75a7.45,7.45,0,0,0-1.25-.11,7.27,7.27,0,0,0-1.25.11H65.75A7.45,7.45,0,0,0,64.5,170.82ZM72,196.23v-10.3h61v10.3a7.52,7.52,0,0,1-7.5,7.5h-46A7.51,7.51,0,0,1,72,196.23Zm44,22.5V403.55H88V218.73ZM72,426.05a7.5,7.5,0,0,1,7.5-7.5h46a7.51,7.51,0,0,1,7.5,7.5v10.88H72Zm-16.94,30a7.47,7.47,0,0,1,6.71-4.14H450.23a7.44,7.44,0,0,1,6.7,4.15l5.43,10.85H49.63ZM19.63,496.93l5.43-10.86a7.47,7.47,0,0,1,6.71-4.14H480.23a7.44,7.44,0,0,1,6.7,4.15l5.43,10.85ZM256,51.93a30,30,0,1,0,30,30A30,30,0,0,0,256,51.93Zm0,45a15,15,0,1,1,15-15A15,15,0,0,1,256,96.93Z"/></svg>