<svg xmlns="http://www.w3.org/2000/svg" id="footwear" viewBox="0 0 48 48"><symbol id="New_Symbol_14" viewBox="-6.5 -6.5 13 13"><path fill="#ffd4c3" stroke="#504b46" stroke-linecap="round" stroke-linejoin="round" stroke-miterlimit="10" d="M0-6c2.2 0 4.1 1.5 4.7 3.5C6.3-2.5 6.4 0 5 0v1c0 2.8-2.2 5-5 5s-5-2.2-5-5V0c-1.4 0-1.3-2.5.2-2.5C-4.1-4.5-2.2-6 0-6z"/><circle cx="-1.6" cy="-.1" r=".1" fill="#ffc258"/><path fill="#4f4b45" d="M-1.6.5c-.3 0-.6-.3-.6-.6s.2-.7.6-.7c.3 0 .6.3.6.7s-.3.6-.6.6z"/><circle cx="1.6" cy="-.1" r=".1" fill="#ffc258"/><path fill="#4f4b45" d="M1.6.5C1.3.5 1 .2 1-.1s.3-.6.6-.6.6.3.6.6-.2.6-.6.6z"/><circle cx="-3" cy="-1.5" r=".5" fill="#fabfa5"/><circle cx="3" cy="-1.5" r=".5" fill="#fabfa5"/><path fill="none" stroke="#504b46" stroke-linecap="round" stroke-linejoin="round" stroke-miterlimit="10" d="M-1.2-3c.8-.5 1.7-.5 2.5 0"/></symbol><g id="Icons"><g id="XMLID_1876_"><ellipse id="XMLID_2866_" cx="26" cy="40.8" fill="#45413c" opacity=".15" rx="17.7" ry="1.7"/><path id="XMLID_2865_" fill="#4acfff" d="M31.3 21.2L26.8 7.7c-.4-1.2-1.6-1.9-2.8-1.8l-1.9.2c-.4 0-.8.4-.9.8l-3.5 11.5 13.6 2.8z"/><path id="XMLID_2864_" fill="#80ddff" d="M26.8 7.7c-.4-1.2-1.6-1.9-2.8-1.8l-1.9.2c-.4 0-.8.4-.9.8l-.7 2.2c.1-.4 1.2-.7 1.6-.8l1.9-.2c1.2-.1 3.1.6 3.5 1.8l-.7-2.2z"/><path id="XMLID_2863_" fill="none" stroke="#45413c" stroke-linecap="round" stroke-linejoin="round" stroke-miterlimit="10" d="M31.3 21.2L26.8 7.7c-.4-1.2-1.6-1.9-2.8-1.8l-1.9.2c-.4 0-.8.4-.9.8l-3.5 11.5 13.6 2.8z"/><path id="XMLID_2862_" fill="#f0f0f0" d="M44 38L3 23 9.1 6.4c.4-1 1.6-1.2 2.3-.5C14 8.7 18.1 10.1 22 9.6c1.2-.1 2.3.3 3.2 1.2L35.7 22c1.7 1.8 3.7 3.2 5.8 4.3 3.2 1.6 4.7 5.4 3.5 8.8L44 38z"/><path id="XMLID_1717_" fill="#fff" d="M8.6 9.5c2.9 2.9 7.2 4.3 11.3 4 1.2-.1 2.5.3 3.4 1.2l11.4 11.5c1.8 1.8 3.9 3.3 6.3 4.5 2 1 3.4 2.7 4 4.7l.1-.3c1.2-3.4-.3-7.1-3.5-8.8-2.2-1.1-4.2-2.6-5.8-4.3L25.1 10.8c-.8-.9-2-1.3-3.2-1.2-3.8.4-8-.9-10.6-3.7-.7-.7-1.9-.5-2.3.5L8 9.2l.6.3z"/><path id="XMLID_1716_" fill="none" stroke="#45413c" stroke-linecap="round" stroke-linejoin="round" stroke-miterlimit="10" d="M44 38L3 23 9.1 6.4c.4-1 1.6-1.2 2.3-.5C14 8.7 18.1 10.1 22 9.6c1.2-.1 2.3.3 3.2 1.2L35.7 22c1.7 1.8 3.7 3.2 5.8 4.3 3.2 1.6 4.7 5.4 3.5 8.8L44 38z"/><path id="XMLID_1715_" fill="#bdbec0" stroke="#45413c" stroke-linecap="round" stroke-linejoin="round" stroke-miterlimit="10" stroke-width="1.006" d="M39.2 39.2l-15.8-5.8c-1.5-.5-2.9-1.2-4.2-2l-3-1.8c-.5-.3-1.1-.4-1.7-.2-.7.2-1.4.2-2.1 0L5 26.7c-1.7-.7-2.7-1.6-2.4-2.5L3 23l41 15-.4 1c-.5 1.1-2.2 1-4.4.2z"/><path id="XMLID_1714_" fill="#4acfff" d="M45.5 32.7c0 .8-.1 1.6-.4 2.4L44 38l-11.5-4.2c1-3 2.4-4.4 4.7-4.8 1.9-.4 3.4-1.7 3.9-2.9.1.1.3.2.4.2 2.5 1.3 4 3.8 4 6.4z"/><path id="XMLID_1713_" fill="#80ddff" d="M45.5 32.7c0 .8-.1 1.6-.4 2.4l-.1.3c-.6-2-2-3.7-4-4.7-1.1-.5-2.2-1.2-3.2-1.9 1.7-.5 3-1.7 3.4-2.8.9.5 1.6.8 2.4 1.7 1.3 1.6 1.9 3.3 1.9 5z"/><path id="XMLID_1712_" fill="none" stroke="#45413c" stroke-linecap="round" stroke-linejoin="round" stroke-miterlimit="10" d="M45.5 32.7c0 .8-.1 1.6-.4 2.4L44 38l-11.5-4.2c1-3 2.4-4.4 4.7-4.8 1.9-.4 3.4-1.7 3.9-2.9.1.1.3.2.4.2 2.5 1.3 4 3.8 4 6.4z"/><path id="XMLID_1711_" fill="#4acfff" d="M16.5 27.9L3 23 8 9.2l1-2.8c.4-1 1.6-1.2 2.3-.5.1.2.3.3.5.5s.3.3.5.4c.2.1.3.3.5.4.4.3.7.5 1.1.7.1.1.4.2.6.4l.6.3c.4.2.8.3 1.2.5-.6 1.5-.8 2.9-.3 4.3.2.6.5 1.2 1 1.8 2.4 2.9 2.3 4.9-.5 12.7z"/><path id="XMLID_1710_" fill="#80ddff" d="M16 13.3c-2.8-.5-5.5-1.8-7.4-3.8L8 9.2l1-2.8c.4-1 1.6-1.2 2.3-.5 1.3 1.5 3.3 2.6 5 3.1-.5 1.6-.7 3-.3 4.3z"/><path id="XMLID_1709_" fill="none" stroke="#45413c" stroke-linecap="round" stroke-linejoin="round" stroke-miterlimit="10" d="M16.5 27.9L3 23 9.1 6.4c.4-1 1.6-1.2 2.3-.5 1.7 1.8 3.4 2.5 5 3.1-.8 2.2-.9 4.1.7 6.1 2.3 3 2.2 5-.6 12.8z"/><path id="XMLID_1708_" fill="#fff" stroke="#45413c" stroke-linecap="round" stroke-linejoin="round" stroke-miterlimit="10" d="M30.1 21.4c-.4-.5-.3-1.2.1-1.6l2.3-2c.5-.4 1.2-.3 1.6.1.4.5.3 1.2-.1 1.6l-2.3 2c-.5.4-1.2.3-1.6-.1z"/><path id="XMLID_1689_" fill="#fff" stroke="#45413c" stroke-linecap="round" stroke-linejoin="round" stroke-miterlimit="10" d="M26 16.9c-.4-.5-.3-1.2.1-1.6l2.3-2c.5-.4 1.2-.3 1.6.1.4.5.3 1.2-.1 1.6l-2.3 2c-.5.4-1.2.4-1.6-.1z"/><path id="XMLID_1688_" fill="#fff" stroke="#45413c" stroke-linecap="round" stroke-linejoin="round" stroke-miterlimit="10" d="M34.5 25c-.4-.5-.3-1.2.1-1.6l1.9-1.6c.5-.4 1.2-.3 1.6.1.4.5.3 1.2-.1 1.6l-1.9 1.6c-.5.4-1.2.4-1.6-.1z"/></g></g></svg>