<svg xmlns="http://www.w3.org/2000/svg" id="hospital" viewBox="0 0 47.5 47.5"><defs><clipPath id="a"><path d="M0 38h38V0H0v38Z"/></clipPath></defs><g clip-path="url(#a)" transform="matrix(1.25 0 0 -1.25 0 47.5)"><path fill="#d1d3d4" d="M25 27a2 2 0 0 0-2-2h-8a2 2 0 0 0-2 2v8a2 2 0 0 0 2 2h8a2 2 0 0 0 2-2v-8ZM1 23V3a2 2 0 0 1 2-2h32a2 2 0 0 1 2 2v20H1Z"/><path fill="#808285" d="M19 25H3a2 2 0 0 1-2-2h20a2 2 0 0 1-2 2"/><path fill="#808285" d="M35 25H19a2 2 0 0 1-2-2h20a2 2 0 0 1-2 2"/><path fill="#55acee" d="M35 11H3v4h32v-4zm0 6H3v4h32v-4zm0-12H3v4h32V5z"/><path fill="#e6e7e8" d="M29 1H9v24h20V1Z"/><path fill="#55acee" d="M27 13H11v4h16v-4zm0 6H11v4h16v-4zm0-12H11v4h16V7z"/><path fill="#3b88c3" d="M24 1H14v4h10V1Z"/><path fill="#dd2e44" d="M23 33h-3v3h-2v-3h-3v-2h3v-3h2v3h3v2z"/><path fill="#808285" d="M27 27H11a2 2 0 0 1-2-2h20a2 2 0 0 1-2 2"/></g></svg>